# xmcd
#
# Track frame offsets: 
#        150
#        19570
#        43592
#        58210
#        69647
#        147505
#        180050
#        207952
#        220622
#        236742
#
# Disc length: 4234 seconds
#
# Revision: 27
# Processed by: cddbd v1.5.1PL2 Copyright (c) Steve Scherf et al.
# Submitted via: ExactAudioCopy v0.95b3
#
DISCID=8c10880a
DTITLE=The Doors - Box Set Disc 2 - Live In New York
DYEAR=1997
DGENRE=Rock
TTITLE0=Roadhouse Blues
TTITLE1=Ship Of Fools
TTITLE2=Peace Frog
TTITLE3=Blue Sunday
TTITLE4=The Celebration Of The Lizard
TTITLE5=Gloria
TTITLE6=Crawling King Snake
TTITLE7=Money
TTITLE8=Poontang Blues , Build Me A Woman , Sunday Trucker
TTITLE9=The End
EXTD=Madison Square Garden, New York, 1970
EXTT0=
EXTT1=
EXTT2=
EXTT3=
EXTT4=
EXTT5=
EXTT6=
EXTT7=
EXTT8=
EXTT9=
PLAYORDER=
